<?xml version="1.0" encoding="UTF-8"?>
<svg version="1.1" xmlns="http://www.w3.org/2000/svg" width="512" height="512">
<path d="M0 0 C5.10375575 3.44503084 9.34505921 7.51934652 13.6756897 11.87528992 C14.93363594 13.12294128 14.93363594 13.12294128 16.21699524 14.39579773 C18.9666052 17.12721784 21.70510165 19.86946307 24.44277954 22.61283875 C25.87676565 24.0443439 27.311682 25.47491192 28.74668825 26.90539438 C33.25247598 31.39718698 37.75048427 35.89666399 42.24356079 40.40116882 C46.85514802 45.0242274 51.47935593 49.63437452 56.1100632 54.23827475 C60.10745145 58.21339941 64.09691602 62.1963572 68.0802635 66.18555146 C70.44973289 68.5583669 72.82269806 70.92735279 75.20164871 73.29068565 C77.85769672 75.93174553 80.50052885 78.58539288 83.14053345 81.24247742 C83.91474136 82.00701736 84.68894928 82.77155731 85.48661804 83.55926514 C95.36667649 93.57266904 101.71676425 104.03857338 102.21621704 118.25737 C101.91820923 130.17768232 97.92518665 139.07354082 89.70840454 147.50737 C83.86037045 153.0497577 76.20407303 158.52466002 67.73916626 158.33720398 C67.02776489 158.2683197 66.31636353 158.19943542 65.58340454 158.12846375 C55.93853113 157.11637074 55.93853113 157.11637074 47.30606079 160.60502625 C44.88279608 163.08407834 42.75494849 165.53740956 40.77871704 168.38237 C41.44258423 168.91604187 42.10645142 169.44971375 42.79043579 169.9995575 C50.31271559 176.34682425 55.15940786 182.52222005 56.77871704 192.38237 C57.34528648 199.60613038 55.78854538 206.8738596 51.52871704 212.81987 C50.95121704 213.665495 50.37371704 214.51112 49.77871704 215.38237 C51.01800485 219.10023343 52.45342426 219.93340725 55.52871704 222.31987 C59.95585874 225.84667329 64.15456452 229.50725308 68.27871704 233.38237 C73.03880289 237.84192946 77.94347204 242.02040993 83.03262329 246.10502625 C86.57550003 249.04314451 89.93313476 252.16468177 93.3006897 255.2988739 C96.51188577 258.26967066 99.80508545 261.0820532 103.21621704 263.81987 C107.99413042 267.66282478 112.46866688 271.75068329 116.94033813 275.93852234 C121.15300809 279.86143854 125.54285259 283.50148024 130.03262329 287.10502625 C133.57550003 290.04314451 136.93313476 293.16468177 140.3006897 296.2988739 C143.51188577 299.26967066 146.80508545 302.0820532 150.21621704 304.81987 C154.99413042 308.66282478 159.46866688 312.75068329 163.94033813 316.93852234 C168.15300809 320.86143854 172.54285259 324.50148024 177.03262329 328.10502625 C180.57550003 331.04314451 183.93313476 334.16468177 187.3006897 337.2988739 C190.51188577 340.26967066 193.80508545 343.0820532 197.21621704 345.81987 C201.99413042 349.66282478 206.46866688 353.75068329 210.94033813 357.93852234 C215.15300809 361.86143854 219.54285259 365.50148024 224.03262329 369.10502625 C227.57788351 372.04512113 230.93795537 375.16861823 234.30728149 378.3054657 C237.45270498 381.21620893 240.67706961 383.9630939 244.02871704 386.63237 C259.8872139 399.49434855 275.11667903 413.23395334 278.77871704 434.38237 C279.6737891 446.42201508 279.74190834 458.21129992 274.77871704 469.38237 C274.3778186 470.30791687 273.97692017 471.23346375 273.56387329 472.1870575 C266.32946152 486.99138998 253.28117846 497.97572643 237.77871704 503.38237 C222.40067972 507.99744728 204.89666557 506.76928077 190.49746704 499.79252625 C178.49644675 493.03480886 169.5558366 482.88541266 161.08731079 472.19487 C158.43815103 468.96746724 155.63401454 465.926621 152.77871704 462.88237 C148.31961142 458.12184114 144.14071002 453.217656 140.05606079 448.12846375 C137.56045236 445.11917947 134.94106561 442.24298345 132.27871704 439.38237 C128.00950925 434.7947956 124.02112965 430.04793995 120.09121704 425.16362 C117.57900694 422.14217811 114.95470877 419.25795227 112.27871704 416.38237 C108.00953552 411.79476886 104.02113187 407.04794271 100.09121704 402.16362 C97.57900694 399.14217811 94.95470877 396.25795227 92.27871704 393.38237 C88.00953552 388.79476886 84.02113187 384.04794271 80.09121704 379.16362 C77.57900694 376.14217811 74.95470877 373.25795227 72.27871704 370.38237 C68.00953552 365.79476886 64.02113187 361.04794271 60.09121704 356.16362 C57.57900694 353.14217811 54.95470877 350.25795227 52.27871704 347.38237 C48.00953552 342.79476886 44.02113187 338.04794271 40.09121704 333.16362 C37.57900694 330.14217811 34.95470877 327.25795227 32.27871704 324.38237 C28.00953552 319.79476886 24.02113187 315.04794271 20.09121704 310.16362 C17.57900202 307.1421722 14.95464352 304.25802009 12.27871704 301.38237 C7.94050424 296.71856513 3.85806643 291.90340014 -0.13925171 286.94096375 C-3.07185952 283.33710236 -6.13052927 279.85077205 -9.22128296 276.38237 C-10.0739978 276.8135614 -10.0739978 276.8135614 -10.94393921 277.25346375 C-21.65602715 282.56357252 -30.06834446 285.16248401 -41.87362671 281.2808075 C-49.08218218 278.5221257 -53.37536812 273.13843128 -58.22128296 267.38237 C-62.72788684 270.51285019 -67.56067898 273.8933089 -68.63046265 279.54350281 C-68.7903309 282.82695077 -68.63748403 286.0540061 -68.46102905 289.33403015 C-67.95870709 298.85180841 -70.47201086 306.11567455 -76.52597046 313.53862 C-84.5125481 322.22448324 -93.27636211 327.60659499 -105.19393921 328.6401825 C-119.73366032 329.16007717 -129.85065935 323.77296632 -140.56978798 314.30882645 C-142.84107135 312.15397676 -145.06214961 309.95871327 -147.26937866 307.73832703 C-148.10015427 306.91441467 -148.93092987 306.09050232 -149.78688049 305.24162292 C-152.49792393 302.54870139 -155.19792452 299.84503127 -157.89706421 297.1401825 C-159.31421252 295.72644514 -160.73136577 294.31271259 -162.14906853 292.89953125 C-166.59442618 288.46814135 -171.03204137 284.02910543 -175.46469116 279.58500671 C-180.01498139 275.02322275 -184.57793507 270.47439615 -189.1473344 265.93175995 C-193.09463163 262.00670611 -197.03402743 258.07384253 -200.96729153 254.13472641 C-203.30594357 251.79272661 -205.64815107 249.45451077 -207.99627113 247.12199783 C-210.61397615 244.51925496 -213.21849581 241.90396651 -215.82015991 239.28520203 C-216.58547028 238.52955963 -217.35078064 237.77391724 -218.13928223 236.99537659 C-226.55736801 228.46166475 -233.49686486 218.13861658 -233.68954468 205.83695984 C-233.67939331 205.08882019 -233.66924194 204.34068054 -233.65878296 203.56987 C-233.65120972 202.78305847 -233.64363647 201.99624695 -233.63583374 201.18559265 C-233.31837367 189.90301538 -229.21428743 181.44997618 -221.33847046 173.47612 C-214.660307 167.29554518 -207.34300141 163.34931584 -198.22128296 162.38237 C-197.05189178 162.48092285 -195.88250061 162.57947571 -194.67767334 162.68101501 C-186.87654664 163.29989654 -182.10255863 163.21419362 -175.81747437 158.01029968 C-173.6638383 156.0077682 -171.61840984 153.91623239 -169.57284546 151.804245 C-168.41120054 150.66432488 -167.24618931 149.52782679 -166.078125 148.39448547 C-162.93790511 145.32675817 -159.84989011 142.21111414 -156.77134705 139.08164215 C-153.53095326 135.80049976 -150.25142158 132.55884189 -146.9781189 129.31059265 C-141.48938888 123.85090378 -136.03509981 118.35850547 -130.59921265 112.84623718 C-124.33000478 106.48995857 -118.00522345 100.19338794 -111.648489 93.92473602 C-106.17472225 88.52377693 -100.73300313 83.09200884 -95.3164463 77.63367462 C-92.08892218 74.38131236 -88.85181619 71.14047008 -85.58535767 67.9271698 C-82.51427093 64.90260478 -79.48552145 61.8409865 -76.4839592 58.74746323 C-75.38196852 57.62447061 -74.26642101 56.51458324 -73.13624954 55.41995621 C-67.81493681 50.25068496 -63.74683892 45.78256423 -63.56467819 38.08959389 C-63.6273376 36.06024126 -63.79073689 34.03474259 -63.95925903 32.01142883 C-64.69094161 21.87754851 -59.72566901 13.20342273 -53.69784546 5.41362 C-39.94523837 -9.88196252 -16.45978131 -10.59074604 0 0 Z " fill="#000000" transform="translate(233.22128295898438,6.6176300048828125)"/>
<path d="M0 0 C0.7664843 -0.00453111 1.5329686 -0.00906223 2.3226797 -0.01373065 C4.88117195 -0.02635193 7.43945071 -0.02475576 9.99797058 -0.02310181 C11.8364489 -0.02908848 13.67492471 -0.03589435 15.51339722 -0.04345703 C20.50110392 -0.06111022 25.48874198 -0.06581213 30.47647691 -0.0670886 C33.59461253 -0.06851117 36.71273075 -0.07278277 39.83086205 -0.07808304 C50.71470114 -0.09658119 61.59849128 -0.10475393 72.48234558 -0.10317993 C82.61843702 -0.10197865 92.75431548 -0.12307897 102.89035302 -0.15466726 C111.60053151 -0.18084204 120.31064049 -0.19154672 129.02085799 -0.19026911 C134.21958671 -0.18975983 139.41812612 -0.19542464 144.61681557 -0.21662521 C149.50804506 -0.23602773 154.39890505 -0.23611824 159.29014778 -0.22159195 C161.08115429 -0.21950525 162.87218405 -0.22419647 164.66315079 -0.23631287 C182.02935495 -0.34615285 182.02935495 -0.34615285 189.201828 4.26742554 C189.91685895 4.71281488 190.6318899 5.15820423 191.36858845 5.61709023 C198.66572177 10.36946681 204.04696068 17.84108116 206.201828 26.26742554 C206.51868512 29.21028056 206.58176644 32.12149286 206.576828 35.07992554 C206.57811707 35.87729126 206.57940613 36.67465698 206.58073425 37.4961853 C206.48517335 42.80795983 205.79172121 46.9722966 203.076828 51.63851929 C201.96521914 53.39972443 201.96521914 53.39972443 202.201828 56.26742554 C203.96419852 57.90678114 203.96419852 57.90678114 206.264328 59.45492554 C216.33009539 67.02791667 223.94502131 77.61169253 226.201828 90.26742554 C226.55322113 94.47866968 226.61727505 98.66805947 226.639328 102.89242554 C226.6721991 104.01133179 226.70507019 105.13023804 226.73893738 106.28305054 C226.74602722 107.36328491 226.75311707 108.44351929 226.76042175 109.55648804 C226.77387634 110.53311401 226.78733093 111.50973999 226.80119324 112.51596069 C225.92507937 116.53787647 224.49087356 117.78626044 221.201828 120.26742554 C217.60029221 121.01389039 214.0512501 120.94195667 210.38395691 120.90234375 C209.28065348 120.9101437 208.17735004 120.91794366 207.04061317 120.92597997 C203.3362013 120.94595549 199.63281037 120.93011245 195.9283905 120.91439819 C193.27567026 120.92117184 190.62302084 120.92989225 187.97032166 120.94094849 C181.50886346 120.96318733 175.04769558 120.958377 168.58622599 120.94388528 C163.33512393 120.93259551 158.08410326 120.93106098 152.83299255 120.93650436 C152.08576608 120.93727053 151.33853961 120.93803669 150.56866992 120.93882608 C149.05071622 120.9404247 147.53276254 120.94204576 146.01480889 120.94368903 C131.77931668 120.95794842 117.54398542 120.9415509 103.3085196 120.9146872 C91.09253658 120.8923482 78.87679111 120.89622827 66.66081238 120.91928101 C52.47644069 120.94603573 38.29221009 120.9565751 24.1078167 120.94121969 C22.5954323 120.93962693 21.08304789 120.93805508 19.57066345 120.93650436 C18.45446654 120.9353473 18.45446654 120.9353473 17.3157202 120.93416686 C12.07062941 120.92984886 6.82562808 120.93713853 1.58055115 120.94890213 C-4.81110489 120.96292209 -11.20245389 120.95913817 -17.59407473 120.93249841 C-20.85560974 120.91935284 -24.11652666 120.91690859 -27.37807465 120.93074417 C-30.91266475 120.94435813 -34.44580388 120.92733136 -37.9803009 120.90234375 C-39.01288214 120.91349736 -40.04546337 120.92465097 -41.10933495 120.93614256 C-45.84359893 120.87098575 -48.06702583 120.82048676 -51.93484497 117.8947506 C-54.06901722 114.88552884 -54.42988394 113.38809219 -54.42707825 109.73226929 C-54.43207336 108.68111938 -54.43706848 107.62996948 -54.44221497 106.54696655 C-54.41530579 105.44409302 -54.38839661 104.34121948 -54.360672 103.20492554 C-54.34407532 102.07691528 -54.32747864 100.94890503 -54.31037903 99.78671265 C-54.09078304 91.9318893 -53.45886481 85.3273331 -49.798172 78.26742554 C-49.14461731 76.95838257 -49.14461731 76.95838257 -48.4778595 75.62289429 C-43.7024353 66.92014035 -36.98434078 60.72487139 -28.798172 55.26742554 C-29.21389465 54.45338257 -29.21389465 54.45338257 -29.63801575 53.62289429 C-30.00024231 52.9074646 -30.36246887 52.19203491 -30.735672 51.45492554 C-31.09532043 50.74723022 -31.45496887 50.03953491 -31.82551575 49.31039429 C-35.31165148 41.9881092 -34.96471103 31.22688289 -33.11457825 23.36117554 C-32.17794288 21.15366978 -31.12724281 19.26103176 -29.798172 17.26742554 C-29.385672 16.58680054 -28.973172 15.90617554 -28.548172 15.20492554 C-21.84842294 5.15530195 -11.95314859 -0.05229873 0 0 Z " fill="#000000" transform="translate(53.79817199707031,391.7325744628906)"/>
<path d="M0 0 C2.29563853 1.11282576 3.73803781 2.36653854 5.5396328 4.17642307 C6.23509209 4.86775837 6.93055138 5.55909367 7.64708519 6.27137852 C8.39946465 7.0345438 9.1518441 7.79770908 9.92702293 8.58400059 C10.72739983 9.3839394 11.52777672 10.18387821 12.35240746 11.00805759 C15.00001052 13.6577531 17.63682526 16.31792168 20.27370262 18.9782877 C22.10579178 20.81597115 23.93854376 22.65299402 25.7719326 24.48938084 C30.10519037 28.83292838 34.43170188 33.18309182 38.75502658 37.53652328 C43.67775603 42.49278684 48.60900853 47.44053277 53.54099703 52.38758004 C63.68537138 62.56331059 73.81899278 72.74969871 83.94557762 82.94313145 C82.41905925 86.54650257 80.28725691 88.84824414 77.5290432 91.6001749 C76.13658379 92.99675831 76.13658379 92.99675831 74.71599388 94.42155552 C73.68437849 95.44609312 72.65266752 96.47053448 71.62087059 97.49488926 C70.53641593 98.57877968 69.45240166 99.66311087 68.36879539 100.74784946 C65.42718839 103.6900305 62.47945382 106.6260025 59.53058958 109.56090736 C56.44937382 112.62962424 53.37381742 115.70400233 50.29765892 118.77778721 C44.47225618 124.59697272 38.64177374 130.411041 32.80945408 136.22329307 C26.16955883 142.84083693 19.53533882 149.46405781 12.90159202 156.08776426 C-0.74410265 169.71255141 -14.39691646 183.33018447 -28.05442238 196.94313145 C-31.15017778 195.56488728 -33.26128527 193.98410026 -35.64847755 191.5895853 C-36.34393684 190.89687534 -37.03939613 190.20416538 -37.75592995 189.49046421 C-38.5083094 188.7308942 -39.26068886 187.9713242 -40.03586769 187.18873692 C-40.83624458 186.38865208 -41.63662148 185.58856724 -42.46125221 184.7642374 C-45.10645185 182.11764408 -47.74449623 179.46403617 -50.38254738 176.81031895 C-52.21485457 174.97428178 -54.04760372 173.13868559 -55.88077736 171.30351353 C-60.21217672 166.96525726 -64.53909342 162.62257641 -68.86387134 158.27772057 C-73.78857387 153.330653 -78.71896568 148.38927228 -83.64984179 143.44835925 C-93.79104128 133.28626216 -103.92508222 123.11704899 -114.05442238 112.94313145 C-108.93404435 106.76104077 -103.36693455 101.08707168 -97.70627785 95.40211582 C-96.6673887 94.35531028 -95.62867693 93.30832867 -94.59012794 92.26118565 C-91.20433054 88.84938855 -87.81327352 85.4428455 -84.42160988 82.03688145 C-83.25094048 80.86084697 -82.08027732 79.68480629 -80.90962029 78.5087595 C-76.0442123 73.62177281 -71.17738677 68.7362052 -66.30683136 63.85434818 C-59.33510225 56.86632936 -52.37204426 49.8699153 -45.42059982 42.86171579 C-40.52386928 37.92637151 -35.61767233 33.0005678 -30.70424759 28.08184385 C-27.77148767 25.14542441 -24.8430905 22.20493801 -21.92471886 19.25421238 C-19.18582461 16.4853814 -16.43545436 13.72850368 -13.67564583 10.98052311 C-12.66346446 9.96856355 -11.65557987 8.95228588 -10.65228844 7.93151188 C-9.28615129 6.54286702 -7.903134 5.17088809 -6.51923561 3.79994297 C-5.74903524 3.02643246 -4.97883488 2.25292194 -4.1852951 1.45597172 C-2.05442238 -0.05686855 -2.05442238 -0.05686855 0 0 Z " fill="#FCB555" transform="translate(182.05442237854004,69.05686855316162)"/>
<path d="M0 0 C4.0610633 1.8992201 7.20763128 4.56923129 10.5625 7.5 C11.18165283 8.03536377 11.80080566 8.57072754 12.4387207 9.12231445 C17.15503283 13.21714883 21.76285934 17.42020222 26.36328125 21.64453125 C28.9725941 23.97551739 31.6481282 26.18327187 34.375 28.375 C39.1706049 32.24154184 43.66878667 36.34851983 48.16137695 40.5559082 C52.37411123 44.47892724 56.76404453 48.11903719 61.25390625 51.72265625 C64.26319052 54.21826469 67.13938654 56.83765143 70 59.5 C73.73327255 62.97419243 77.52371111 66.3006871 81.5 69.5 C86.61245985 73.61652611 91.42576554 77.9922884 96.23828125 82.44921875 C100.8860218 86.74196922 105.66174698 90.87266498 110.49609375 94.953125 C111.12338379 95.48494385 111.75067383 96.0167627 112.39697266 96.56469727 C113.64998748 97.62623047 114.90606049 98.68416702 116.16552734 99.73803711 C116.74641113 100.23053955 117.32729492 100.72304199 117.92578125 101.23046875 C118.44567627 101.66770264 118.96557129 102.10493652 119.5012207 102.55541992 C121 104 121 104 124 108 C109.48 122.52 94.96 137.04 80 152 C76.26676074 150.75558691 75.40139836 149.27312032 73 146.1875 C69.63921522 141.97015156 66.17987012 137.94042037 62.5 134 C58.22995397 129.41324412 54.24235242 124.66549516 50.3125 119.78125 C47.8002899 116.75980812 45.17599173 113.87558227 42.5 111 C38.23081848 106.41239887 34.24241483 101.66557272 30.3125 96.78125 C27.8002899 93.75980812 25.17599173 90.87558227 22.5 88 C18.23081848 83.41239887 14.24241483 78.66557272 10.3125 73.78125 C7.8002899 70.75980812 5.17599173 67.87558227 2.5 65 C-0.9741715 61.26670522 -4.30068494 57.47629157 -7.5 53.5 C-11.60300303 48.40076422 -15.95916453 43.60662632 -20.421875 38.82421875 C-23.04569641 35.94994166 -25.53058305 33.00682603 -28 30 C-26.36221955 25.80374091 -23.26676818 23.01323215 -20.1171875 19.921875 C-19.54292023 19.35043762 -18.96865295 18.77900024 -18.37698364 18.19024658 C-16.5476419 16.37207055 -14.71145807 14.56098508 -12.875 12.75 C-11.63105226 11.51608671 -10.3875573 10.28171678 -9.14453125 9.046875 C-6.10157633 6.02593257 -3.05246746 3.01132908 0 0 Z " fill="#90542B" transform="translate(266,238)"/>
<path d="M0 0 C3.86138308 1.80029513 6.67954941 4.28113788 9.75 7.1875 C10.83014996 8.1933307 11.91087851 9.19854041 12.9921875 10.203125 C13.77287598 10.93112305 13.77287598 10.93112305 14.56933594 11.67382812 C19.26495484 16.02649056 24.16904636 20.14704585 29.03759766 24.3034668 C31.46610093 26.38056958 33.88657018 28.46695004 36.30761719 30.55273438 C37.83161244 31.85600095 39.37188642 33.1401737 40.9140625 34.421875 C46.68632386 39.33963241 50.62357667 44.20258009 54 51 C54.33902344 51.62132812 54.67804688 52.24265625 55.02734375 52.8828125 C59.05078276 61.44884394 58.03811486 72.12923927 55 80.8125 C50.21866673 91.7450991 43.08270356 99.32081773 32.25390625 104.25 C21.78850342 108.25270387 10.95162837 108.67540375 0.52734375 104.328125 C-9.83093645 98.88482474 -17.33366335 89.92447635 -24.546875 80.95703125 C-27.10492378 77.87352341 -29.77018305 74.93023149 -32.5 72 C-36.92459021 67.2487518 -41.07119938 62.35204637 -45.125 57.27734375 C-46.67212586 55.39823047 -48.24046341 53.67705831 -50 52 C-48.450168 48.29955056 -46.19605329 45.95418913 -43.36669922 43.13964844 C-42.89823578 42.67089294 -42.42977234 42.20213745 -41.94711304 41.71917725 C-40.40433305 40.17778568 -38.85460036 38.64359127 -37.3046875 37.109375 C-36.23093808 36.03935745 -35.15763067 34.96889619 -34.08474731 33.89801025 C-31.26479548 31.08568121 -28.43888846 28.27941111 -25.61169434 25.47436523 C-22.7257863 22.60894477 -19.84555743 19.73782832 -16.96484375 16.8671875 C-11.31543511 11.23920488 -5.65972175 5.61761116 0 0 Z " fill="#8F542B" transform="translate(435,385)"/>
<path d="M0 0 C1.86685594 -0.00378708 3.73370907 -0.00929032 5.60055542 -0.01637268 C10.65230599 -0.03029475 15.70371472 -0.01917985 20.7554462 -0.00266147 C26.0531989 0.01122805 31.35093254 0.00472443 36.6486969 0.00120544 C45.54498781 -0.00149383 54.44114359 0.01195382 63.33740234 0.03515625 C73.60700406 0.06175596 83.87637978 0.06351458 94.14600414 0.05176789 C104.04358893 0.04096912 113.94109238 0.04719418 123.83867073 0.06132317 C128.04217526 0.06706559 132.24561992 0.06701401 136.44912529 0.06225777 C141.40439691 0.05746721 146.35942275 0.06767548 151.31464767 0.08921242 C153.12779855 0.09475252 154.94097318 0.09527126 156.7541256 0.09025955 C169.34080577 0.0598453 181.13093324 0.08986632 190.60375977 9.50170898 C196.101722 16.42914141 198.60375977 21.50433727 198.60375977 30.50170898 C119.40375977 30.50170898 40.20375977 30.50170898 -41.39624023 30.50170898 C-41.39624023 21.92539464 -39.12891501 15.88388482 -33.53295898 9.31420898 C-31.52839478 7.45024548 -29.72718709 5.94772448 -27.39624023 4.50170898 C-26.88205504 4.17043975 -26.36786985 3.83917051 -25.83810329 3.49786282 C-17.80910153 -0.87584223 -8.86639826 -0.05125272 0 0 Z " fill="#90542B" transform="translate(61.396240234375,461.498291015625)"/>
<path d="M0 0 C1.33804688 -0.04253906 1.33804688 -0.04253906 2.703125 -0.0859375 C11.38481576 1.22744649 16.8603107 6.90771876 22.78051758 12.88793945 C24.07714325 14.17405121 24.07714325 14.17405121 25.39996338 15.48614502 C27.75229575 17.82395755 30.09535935 20.17032672 32.43404603 22.52174401 C34.89164417 24.98952604 37.35905195 27.44746967 39.82487488 29.9070282 C43.96167522 34.03656912 48.09001055 38.1744317 52.21362305 42.31713867 C56.97205778 47.09735326 61.74475023 51.86296824 66.52507478 56.62128478 C70.6405046 60.7185291 74.74804632 64.82355896 78.84916419 68.93512887 C81.29363733 71.38581778 83.74068442 73.83377232 86.19489479 76.27471352 C88.93029652 78.99635366 91.64907539 81.73423729 94.36645508 84.47387695 C95.57974739 85.67502388 95.57974739 85.67502388 96.81755066 86.9004364 C101.96570137 92.12690619 106.17289087 97.08427199 106.1875 104.8125 C105.95261477 110.56718814 104.01197085 115.01021229 100.03125 119.171875 C95.27960214 123.40003623 91.86783218 124.54658153 85.4375 124.6875 C84.32761719 124.72488281 83.21773438 124.76226562 82.07421875 124.80078125 C74.3954456 123.81724861 69.16539077 117.08678739 63.9465332 111.86206055 C62.65034561 110.57594879 62.65034561 110.57594879 61.32797241 109.26385498 C58.9709608 106.92253577 56.61855404 104.57678853 54.26874185 102.22825599 C52.79806133 100.75900147 51.32596398 99.29118207 49.8533535 97.82386208 C44.70959578 92.69857511 39.57099775 87.56818019 34.43725586 82.43286133 C29.66117996 77.65558315 24.87405224 72.88958238 20.08162242 68.12871522 C15.95797473 64.03125549 11.84211231 59.9260841 7.73217648 55.81487113 C5.28146946 53.36365545 2.82779311 50.91561003 0.36623573 48.47528648 C-2.37868044 45.75340824 -5.10732761 43.01556886 -7.8347168 40.27612305 C-8.64672043 39.47535843 -9.45872406 38.67459381 -10.29533386 37.8495636 C-15.68889508 32.3952128 -19.64322235 27.45917078 -19.75 19.4375 C-19.57725903 14.03317546 -17.70742122 10.45589062 -14.25 6.375 C-9.80517199 2.25540331 -6.10083582 0.0871548 0 0 Z " fill="#90542B" transform="translate(39.25,189.625)"/>
<path d="M0 0 C0.79921875 -0.02835938 1.5984375 -0.05671875 2.421875 -0.0859375 C11.04258838 1.3190959 16.50950786 7.06706544 22.38818359 13.02734375 C23.70184906 14.33531418 23.70184906 14.33531418 25.04205322 15.66970825 C27.42517541 18.04671967 29.79907165 20.43225312 32.16890669 22.8224678 C34.65706115 25.32828264 37.15584878 27.82345417 39.65322876 30.32006836 C43.84094065 34.50964831 48.02086262 38.70687252 52.19580078 42.90917969 C57.01980852 47.76469453 61.85424698 52.60961966 66.69476449 57.44867229 C71.85730208 62.60985866 77.01219516 67.77862847 82.16486406 72.94966507 C83.64733734 74.43639668 85.13122315 75.92170588 86.61542892 77.40670776 C89.3790494 80.17271205 92.1340812 82.94717317 94.88818359 85.72265625 C95.70999115 86.54355743 96.53179871 87.36445862 97.37850952 88.2102356 C98.12697144 88.96722748 98.87543335 89.72421936 99.64657593 90.50415039 C100.29803274 91.15895889 100.94948956 91.8137674 101.62068748 92.48841858 C105.83273009 97.3655439 105.67444575 101.92780889 105.5625 108.17578125 C104.99915527 113.94302294 102.60163928 117.34168261 98.3125 121.1875 C93.3876475 124.70525179 89.7596563 125.59457035 83.82421875 125.8359375 C75.41631346 124.33042487 69.9876239 118.68867434 64.21948242 112.86206055 C63.35506531 112.00465271 62.49064819 111.14724487 61.60003662 110.26385498 C59.24770425 107.92604245 56.90464065 105.57967328 54.56595397 103.22825599 C52.10835583 100.76047396 49.64094805 98.30253033 47.17512512 95.8429718 C43.03832478 91.71343088 38.90998945 87.5755683 34.78637695 83.43286133 C30.02794222 78.65264674 25.25524977 73.88703176 20.47492522 69.12871522 C16.3594954 65.0314709 12.25195368 60.92644104 8.15083581 56.81487113 C5.70636267 54.36418222 3.25931558 51.91622768 0.80510521 49.47528648 C-1.93029652 46.75364634 -4.64907539 44.01576271 -7.36645508 41.27612305 C-8.17531662 40.47535843 -8.98417816 39.67459381 -9.81755066 38.8495636 C-15.40894142 33.17311073 -19.15139335 28.23278481 -19.25 19.9375 C-19.08693674 14.28464019 -17.42438993 10.62163099 -13.75 6.375 C-9.53118885 2.46488235 -5.81615361 0.09261391 0 0 Z " fill="#90542B" transform="translate(208.75,19.625)"/>
<path d="M0 0 C1.08468782 -0.00935994 1.08468782 -0.00935994 2.19128853 -0.01890898 C4.59727052 -0.03477379 7.00223016 -0.02226114 9.40821838 -0.00964355 C11.14009692 -0.01506765 12.87197084 -0.02219192 14.60383606 -0.03088379 C19.29607334 -0.04908732 23.98795801 -0.04206154 28.68020129 -0.02936745 C33.59720464 -0.01922277 38.5141783 -0.02863735 43.43118286 -0.03491211 C51.68871974 -0.04218492 59.94611342 -0.03261113 68.20362854 -0.0135498 C77.74050934 0.00821101 87.27704795 0.00117183 96.81392044 -0.02085543 C105.01117609 -0.03902846 113.20832893 -0.04155822 121.40559822 -0.03110075 C126.29741748 -0.02487536 131.1890761 -0.02400376 136.08088493 -0.0372467 C140.68161342 -0.04883203 145.28190242 -0.0407306 149.88258362 -0.01766968 C151.56756932 -0.01239658 153.25259222 -0.01387235 154.93756294 -0.02272034 C170.93279714 -0.09894618 170.93279714 -0.09894618 177.4924469 4.50793457 C180.83233435 8.46822353 182.18342775 12.32902743 181.87135315 17.52355957 C181.2026654 21.02555316 179.95508444 23.91568453 177.4924469 26.50793457 C172.41032786 29.87405578 169.17350938 31.00911034 162.94692993 31.02259827 C162.21972116 31.02954379 161.4925124 31.03648932 160.743267 31.04364532 C158.32348577 31.06183977 155.9046934 31.05167281 153.48487854 31.04138184 C151.74314647 31.04844417 150.00142053 31.05719052 148.25970459 31.06748962 C143.54062329 31.08995824 138.82187778 31.08704978 134.10276341 31.07816815 C130.15892724 31.07305169 126.21515381 31.08035618 122.2713241 31.08764023 C112.96549982 31.10463126 103.65983955 31.10108145 94.35401917 31.08435059 C84.76255536 31.06742885 75.17154665 31.08326633 65.58013254 31.11557347 C57.33616368 31.14228709 49.09233632 31.14954061 40.84832853 31.14105839 C35.92851786 31.13613449 31.00898098 31.13831575 26.08920479 31.1588459 C21.46214425 31.17723091 16.83573726 31.17120998 12.20871162 31.1466465 C10.51404647 31.14164758 8.81933128 31.14510449 7.12470627 31.15779495 C-8.29864616 31.26412733 -8.29864616 31.26412733 -14.16471195 26.90908718 C-17.51953131 23.40858832 -18.36076773 19.68221751 -18.9450531 15.00793457 C-18.42068569 10.81299526 -17.41286651 7.63169259 -14.5075531 4.50793457 C-9.43788046 1.14836157 -6.21171536 0.00727087 0 0 Z " fill="#90542B" transform="translate(58.50755310058594,411.4920654296875)"/>
<path d="M0 0 C2.8100346 1.79363911 4.50940468 3.01880935 6 6 C6.52746623 9.29666393 6.79838749 11.82193542 4.85676575 14.68690491 C-1.04358844 21.16933277 -7.22285536 27.36803952 -13.42578125 33.55859375 C-14.62182453 34.7553118 -15.81771943 35.95217816 -17.01347351 37.14918518 C-19.50386355 39.64104063 -21.99603119 42.13110043 -24.48950195 44.61987305 C-27.68855266 47.81318977 -30.88304254 51.01102568 -34.07624531 54.21018887 C-36.53733683 56.67488564 -39.0007947 59.13720609 -41.4649868 61.59880257 C-42.6447105 62.77785882 -43.82369081 63.95765937 -45.00191689 65.1382122 C-46.64120915 66.78003439 -48.28365553 68.41863361 -49.92700195 70.05639648 C-50.8607515 70.98935043 -51.79450104 71.92230438 -52.75654602 72.88352966 C-55.57575538 75.54316656 -56.41911165 75.94519921 -60.3125 76.3125 C-64.57536111 75.95124058 -66.01992054 74.98007946 -69 72 C-70.65476316 68.69047367 -70.74023187 65.55202391 -70 62 C-68.84907532 60.25657654 -68.84907532 60.25657654 -67.23168945 58.49780273 C-66.59244537 57.80218231 -65.95320129 57.10656189 -65.29458618 56.38986206 C-60.52122544 51.41830169 -55.67115261 46.52842002 -50.79296875 41.66015625 C-49.61934573 40.48585843 -48.4458711 39.31141229 -47.27253723 38.13682556 C-44.82922545 35.69204862 -42.38413688 33.24906688 -39.93774414 30.80737305 C-36.7992271 27.6745907 -33.66527229 24.53728856 -30.53260326 21.39865971 C-28.11783488 18.98028602 -25.70070018 16.5642888 -23.28283119 14.14901543 C-22.12543621 12.99228784 -20.96878447 11.83481609 -19.81288719 10.67659187 C-18.20472778 9.06590239 -16.59341468 7.45843678 -14.98120117 5.85180664 C-14.06521652 4.93661758 -13.14923187 4.02142853 -12.20549011 3.07850647 C-8.49709501 -0.41637349 -4.95545325 -0.71199041 0 0 Z " fill="#8F542B" transform="translate(263,193)"/>
<path d="M0 0 C2.98969861 1.30562787 3.81241879 2.32021302 6 5 C6.97045932 8.2513478 6.81489236 10.72487832 6 14 C4.70072937 15.89053345 4.70072937 15.89053345 3.00268555 17.72900391 C2.36744965 18.42060608 1.73221375 19.11220825 1.07772827 19.82476807 C-2.52696332 23.59862068 -6.1678087 27.33053326 -9.85546875 31.0234375 C-10.67952713 31.85082428 -11.50358551 32.67821106 -12.35261536 33.53067017 C-14.08166862 35.26475395 -15.81205002 36.99751437 -17.54370117 38.72900391 C-20.19543036 41.38293695 -22.83903814 44.04478895 -25.48242188 46.70703125 C-27.16878143 48.39632203 -28.85561378 50.08514099 -30.54296875 51.7734375 C-31.33156784 52.56922211 -32.12016693 53.36500671 -32.93266296 54.18490601 C-34.03950188 55.28712997 -34.03950188 55.28712997 -35.16870117 56.41162109 C-35.81377121 57.05811615 -36.45884125 57.70461121 -37.12345886 58.37069702 C-40.17747353 61.02233896 -42.41502706 61.9255489 -46.4375 62.4375 C-50.91903826 61.88713565 -52.20852117 60.44829737 -55 57 C-56.43304064 54.13391871 -56.30644155 52.18699217 -56 49 C-52.68997565 43.0338586 -47.81181141 38.54026748 -43 33.76953125 C-42.12730469 32.89729416 -41.25460938 32.02505707 -40.35546875 31.12638855 C-38.51538918 29.28932189 -36.67288794 27.45467807 -34.828125 25.62231445 C-32.00463068 22.8171007 -29.18924452 20.0039433 -26.375 17.18945312 C-24.5838049 15.40317284 -22.79215369 13.61734979 -21 11.83203125 C-20.15824219 10.99138626 -19.31648438 10.15074127 -18.44921875 9.28462219 C-17.66160156 8.50338486 -16.87398437 7.72214752 -16.0625 6.91723633 C-15.37285156 6.23139969 -14.68320313 5.54556305 -13.97265625 4.83894348 C-9.52378585 0.69163134 -6.25702258 -1.23462323 0 0 Z " fill="#060402" transform="translate(185,101)"/>
<path d="M0 0 C3.88687973 1.94343987 6.62831213 4.19995388 9.75 7.125 C10.25660156 7.59292969 10.76320313 8.06085938 11.28515625 8.54296875 C12.52719141 9.69126541 13.76411494 10.84508672 15 12 C13.48425052 15.5547825 11.403339 17.85541091 8.68969727 20.58496094 C7.79859756 21.48559265 6.90749786 22.38622437 5.98939514 23.31414795 C5.01539504 24.2878867 4.04105727 25.26128778 3.06640625 26.234375 C2.06731982 27.23734941 1.06845725 28.24054686 0.06980896 29.24395752 C-2.02078628 31.34200344 -4.11520098 33.43614557 -6.2121582 35.52783203 C-8.9019399 38.2118036 -11.58015044 40.90700339 -14.25541592 43.60543442 C-16.31336708 45.67809334 -18.37817764 47.74380952 -20.44505501 49.80756378 C-21.435793 50.79881592 -22.42416279 51.79244081 -23.41012383 52.78844452 C-24.78635434 54.17697125 -26.17308766 55.55506457 -27.56030273 56.93261719 C-28.74039162 58.11365021 -28.74039162 58.11365021 -29.94432068 59.31854248 C-32 61 -32 61 -35 61 C-37.19140625 58.734375 -37.19140625 58.734375 -39.5625 55.75 C-40.34753906 54.77546875 -41.13257813 53.8009375 -41.94140625 52.796875 C-44 50 -44 50 -46 46 C-30.82 30.82 -15.64 15.64 0 0 Z " fill="#56545B" transform="translate(405,359)"/>
<path d="M0 0 C3.64051176 0.81120099 5.09653944 2.45526886 7.15625 5.48046875 C8.21875 8.91796875 8.21875 8.91796875 8.15625 12.48046875 C5.21954114 17.94882318 5.21954114 17.94882318 2.15625 19.48046875 C-0.9266053 19.95894727 -3.76722221 20.02681765 -6.84375 19.48046875 C-10.01832096 16.88898225 -11.38955349 15.4061118 -12.31640625 11.4765625 C-12.59299348 7.73908893 -11.92337876 5.6037649 -9.90625 2.48046875 C-6.33358656 0.14730079 -4.19648565 -0.25878328 0 0 Z " fill="#060402" transform="translate(112.84375,171.51953125)"/>
</svg>
